<mxfile host="app.diagrams.net" modified="2024-05-17T19:41:49.847Z" agent="Mozilla/5.0 (Windows NT 10.0; Win64; x64) AppleWebKit/537.36 (KHTML, like Gecko) Chrome/124.0.0.0 Safari/537.36" version="24.3.1" etag="_xNUdz3ySvyHIq89i2ey" type="device">
  <diagram id="fU-gEYFGyZWTFOjIOZvl" name="Page-1">
    <mxGraphModel dx="880" dy="468" grid="1" gridSize="10" guides="1" tooltips="1" connect="1" arrows="1" fold="1" page="1" pageScale="1" pageWidth="850" pageHeight="1100" math="0" shadow="0">
      <root>
        <mxCell id="0" />
        <mxCell id="1" parent="0" />
        <mxCell id="gH_WDJyabPF9Cum7Zpes-1" value="Passion&lt;div&gt;FrameWork&lt;/div&gt;" style="ellipse;whiteSpace=wrap;html=1;aspect=fixed;" vertex="1" parent="1">
          <mxGeometry x="380" y="210" width="80" height="80" as="geometry" />
        </mxCell>
        <mxCell id="gH_WDJyabPF9Cum7Zpes-2" value="Create Account" style="rounded=0;whiteSpace=wrap;html=1;" vertex="1" parent="1">
          <mxGeometry x="210" y="90" width="110" height="40" as="geometry" />
        </mxCell>
        <mxCell id="gH_WDJyabPF9Cum7Zpes-3" value="Interview" style="rounded=0;whiteSpace=wrap;html=1;" vertex="1" parent="1">
          <mxGeometry x="190" y="330" width="110" height="40" as="geometry" />
        </mxCell>
        <mxCell id="gH_WDJyabPF9Cum7Zpes-4" value="Opportunity" style="rounded=0;whiteSpace=wrap;html=1;" vertex="1" parent="1">
          <mxGeometry x="540" y="340" width="110" height="40" as="geometry" />
        </mxCell>
        <mxCell id="gH_WDJyabPF9Cum7Zpes-5" value="Reference" style="rounded=0;whiteSpace=wrap;html=1;" vertex="1" parent="1">
          <mxGeometry x="530" y="220" width="110" height="40" as="geometry" />
        </mxCell>
        <mxCell id="gH_WDJyabPF9Cum7Zpes-6" value="Research" style="rounded=0;whiteSpace=wrap;html=1;" vertex="1" parent="1">
          <mxGeometry x="520" y="90" width="110" height="40" as="geometry" />
        </mxCell>
        <mxCell id="gH_WDJyabPF9Cum7Zpes-7" value="Application" style="rounded=0;whiteSpace=wrap;html=1;" vertex="1" parent="1">
          <mxGeometry x="180" y="210" width="110" height="40" as="geometry" />
        </mxCell>
        <mxCell id="gH_WDJyabPF9Cum7Zpes-8" value="Ideation" style="rounded=0;whiteSpace=wrap;html=1;" vertex="1" parent="1">
          <mxGeometry x="365" y="60" width="110" height="40" as="geometry" />
        </mxCell>
        <mxCell id="gH_WDJyabPF9Cum7Zpes-9" value="Group" style="rounded=0;whiteSpace=wrap;html=1;" vertex="1" parent="1">
          <mxGeometry x="370" y="390" width="110" height="40" as="geometry" />
        </mxCell>
        <mxCell id="gH_WDJyabPF9Cum7Zpes-10" value="" style="endArrow=classic;startArrow=classic;html=1;rounded=0;exitX=1;exitY=0.375;exitDx=0;exitDy=0;exitPerimeter=0;" edge="1" parent="1" source="gH_WDJyabPF9Cum7Zpes-1">
          <mxGeometry width="50" height="50" relative="1" as="geometry">
            <mxPoint x="480" y="290" as="sourcePoint" />
            <mxPoint x="530" y="240" as="targetPoint" />
          </mxGeometry>
        </mxCell>
        <mxCell id="gH_WDJyabPF9Cum7Zpes-11" value="" style="endArrow=classic;startArrow=classic;html=1;rounded=0;exitX=0.825;exitY=0.038;exitDx=0;exitDy=0;exitPerimeter=0;" edge="1" parent="1" source="gH_WDJyabPF9Cum7Zpes-1">
          <mxGeometry width="50" height="50" relative="1" as="geometry">
            <mxPoint x="470" y="180" as="sourcePoint" />
            <mxPoint x="520" y="130" as="targetPoint" />
          </mxGeometry>
        </mxCell>
        <mxCell id="gH_WDJyabPF9Cum7Zpes-12" value="" style="endArrow=classic;startArrow=classic;html=1;rounded=0;exitX=0.5;exitY=0;exitDx=0;exitDy=0;" edge="1" parent="1" source="gH_WDJyabPF9Cum7Zpes-1">
          <mxGeometry width="50" height="50" relative="1" as="geometry">
            <mxPoint x="370" y="150" as="sourcePoint" />
            <mxPoint x="420" y="100" as="targetPoint" />
          </mxGeometry>
        </mxCell>
        <mxCell id="gH_WDJyabPF9Cum7Zpes-13" value="" style="endArrow=classic;startArrow=classic;html=1;rounded=0;exitX=1;exitY=0.5;exitDx=0;exitDy=0;" edge="1" parent="1" source="gH_WDJyabPF9Cum7Zpes-7">
          <mxGeometry width="50" height="50" relative="1" as="geometry">
            <mxPoint x="330" y="290" as="sourcePoint" />
            <mxPoint x="380" y="240" as="targetPoint" />
          </mxGeometry>
        </mxCell>
        <mxCell id="gH_WDJyabPF9Cum7Zpes-14" value="" style="endArrow=classic;startArrow=classic;html=1;rounded=0;exitX=1;exitY=0.25;exitDx=0;exitDy=0;" edge="1" parent="1" source="gH_WDJyabPF9Cum7Zpes-3">
          <mxGeometry width="50" height="50" relative="1" as="geometry">
            <mxPoint x="340" y="320" as="sourcePoint" />
            <mxPoint x="390" y="270" as="targetPoint" />
          </mxGeometry>
        </mxCell>
        <mxCell id="gH_WDJyabPF9Cum7Zpes-15" value="" style="endArrow=classic;startArrow=classic;html=1;rounded=0;exitX=0.988;exitY=0.8;exitDx=0;exitDy=0;exitPerimeter=0;" edge="1" parent="1" source="gH_WDJyabPF9Cum7Zpes-1">
          <mxGeometry width="50" height="50" relative="1" as="geometry">
            <mxPoint x="490" y="390" as="sourcePoint" />
            <mxPoint x="540" y="340" as="targetPoint" />
          </mxGeometry>
        </mxCell>
        <mxCell id="gH_WDJyabPF9Cum7Zpes-16" value="" style="endArrow=classic;startArrow=classic;html=1;rounded=0;exitX=0.445;exitY=0.025;exitDx=0;exitDy=0;exitPerimeter=0;" edge="1" parent="1" source="gH_WDJyabPF9Cum7Zpes-9">
          <mxGeometry width="50" height="50" relative="1" as="geometry">
            <mxPoint x="370" y="340" as="sourcePoint" />
            <mxPoint x="420" y="290" as="targetPoint" />
          </mxGeometry>
        </mxCell>
        <mxCell id="gH_WDJyabPF9Cum7Zpes-17" value="" style="endArrow=classic;startArrow=classic;html=1;rounded=0;exitX=0.25;exitY=0.1;exitDx=0;exitDy=0;exitPerimeter=0;" edge="1" parent="1" source="gH_WDJyabPF9Cum7Zpes-1">
          <mxGeometry width="50" height="50" relative="1" as="geometry">
            <mxPoint x="270" y="180" as="sourcePoint" />
            <mxPoint x="320" y="130" as="targetPoint" />
          </mxGeometry>
        </mxCell>
      </root>
    </mxGraphModel>
  </diagram>
</mxfile>
